<?xml version="1.0" encoding="UTF-8" standalone="no"?>
<!-- Uploaded to: SVG Repo, www.svgrepo.com, Generator: SVG Repo Mixer Tools -->

<svg
   width="800px"
   height="800px"
   viewBox="0 0 24 24"
   fill="none"
   version="1.1"
   id="svg1"
   sodipodi:docname="add.svg"
   inkscape:version="1.3 (0e150ed6c4, 2023-07-21)"
   xmlns:inkscape="http://www.inkscape.org/namespaces/inkscape"
   xmlns:sodipodi="http://sodipodi.sourceforge.net/DTD/sodipodi-0.dtd"
   xmlns="http://www.w3.org/2000/svg"
   xmlns:svg="http://www.w3.org/2000/svg">
  <defs
     id="defs1" />
  <sodipodi:namedview
     id="namedview1"
     pagecolor="#ffffff"
     bordercolor="#000000"
     borderopacity="0.25"
     inkscape:showpageshadow="2"
     inkscape:pageopacity="0.0"
     inkscape:pagecheckerboard="0"
     inkscape:deskcolor="#d1d1d1"
     inkscape:zoom="1.02625"
     inkscape:cx="400.48721"
     inkscape:cy="400"
     inkscape:window-width="1920"
     inkscape:window-height="1017"
     inkscape:window-x="-8"
     inkscape:window-y="-8"
     inkscape:window-maximized="1"
     inkscape:current-layer="svg1" />
  <path
     d="M17 15V19M19 17H15M16 10H18C19.1046 10 20 9.10457 20 8V6C20 4.89543 19.1046 4 18 4H16C14.8954 4 14 4.89543 14 6V8C14 9.10457 14.8954 10 16 10ZM6 20H8C9.10457 20 10 19.1046 10 18V16C10 14.8954 9.10457 14 8 14H6C4.89543 14 4 14.8954 4 16V18C4 19.1046 4.89543 20 6 20ZM6 10H8C9.10457 10 10 9.10457 10 8V6C10 4.89543 9.10457 4 8 4H6C4.89543 4 4 4.89543 4 6V8C4 9.10457 4.89543 10 6 10Z"
     stroke="#000000"
     stroke-width="2"
     stroke-linecap="round"
     stroke-linejoin="round"
     id="path1"
     style="fill:none;stroke:#005f73;stroke-opacity:1" />
</svg>
