<?xml version="1.0" encoding="UTF-8" standalone="no"?>
<!-- Uploaded to: SVG Repo, www.svgrepo.com, Generator: SVG Repo Mixer Tools -->

<svg
   fill="#000000"
   height="800px"
   width="800px"
   version="1.1"
   id="Layer_1"
   viewBox="0 0 512 512"
   xml:space="preserve"
   sodipodi:docname="cobertura_on.svg"
   inkscape:version="1.3 (0e150ed6c4, 2023-07-21)"
   xmlns:inkscape="http://www.inkscape.org/namespaces/inkscape"
   xmlns:sodipodi="http://sodipodi.sourceforge.net/DTD/sodipodi-0.dtd"
   xmlns="http://www.w3.org/2000/svg"
   xmlns:svg="http://www.w3.org/2000/svg"><defs
   id="defs4" /><sodipodi:namedview
   id="namedview4"
   pagecolor="#ffffff"
   bordercolor="#000000"
   borderopacity="0.25"
   inkscape:showpageshadow="2"
   inkscape:pageopacity="0.0"
   inkscape:pagecheckerboard="0"
   inkscape:deskcolor="#d1d1d1"
   inkscape:zoom="0.72566833"
   inkscape:cx="385.85121"
   inkscape:cy="342.44294"
   inkscape:window-width="1920"
   inkscape:window-height="1017"
   inkscape:window-x="-8"
   inkscape:window-y="-8"
   inkscape:window-maximized="1"
   inkscape:current-layer="g2" />&#10;<g
   id="g2">&#10;	<g
   id="g1"
   style="fill:#94d2bd;fill-opacity:1">&#10;		<path
   d="m 393.884,91.974 v 53.354 m 0,0 h -34.743 c -4.429,0 -8.018,3.59 -8.018,8.018 v 40.522 l -77.986,-59.989 c -9.786,-7.529 -23.455,-7.53 -33.242,-0.001 L 99.168,242.129 c -3.51,2.7 -4.166,7.733 -1.467,11.244 2.7,3.511 7.733,4.166 11.244,1.467 l 140.73,-108.253 c 4.03,-3.1 9.657,-3.1 13.687,0 l 90.893,69.918 c 5.175,3.978 12.906,0.16 12.906,-6.355 v -48.787 h 69.486 v 114.573 c 0,2.49 1.156,4.837 3.129,6.355 l 45.942,35.34 c 4.906,3.774 5.826,10.834 2.054,15.74 -3.731,4.849 -10.886,5.789 -15.741,2.053 L 261.407,173.405 c -2.883,-2.216 -6.896,-2.216 -9.777,0 L 41.006,335.423 c -4.853,3.731 -12.011,2.795 -15.741,-2.054 -3.733,-4.851 -2.793,-12.011 2.054,-15.74 l 52.308,-40.238 c 3.51,-2.7 4.166,-7.733 1.467,-11.244 -2.7,-3.51 -7.734,-4.167 -11.244,-1.467 l -52.308,40.238 c -11.773,9.056 -14.052,26.442 -4.987,38.227 9.164,11.914 26.312,14.151 38.227,4.987 L 256.517,189.875 462.251,348.132 c 11.798,9.073 29.167,6.793 38.229,-4.987 9.164,-11.915 6.926,-29.063 -4.987,-38.227 L 452.681,271.986 V 153.345 c 0,-4.428 -3.589,-8.018 -8.018,-8.018 h -21.087 m 0,0 18.411,-15.781"
   id="path1"
   sodipodi:nodetypes="cccsscccccccccsccsccccccccccccccccccccssccc"
   style="fill:#94d2bd;fill-opacity:1" />&#10;	</g>&#10;</g>&#10;&#10;</svg>
