<?xml version="1.0" encoding="UTF-8" standalone="no"?>
<!-- Uploaded to: SVG Repo, www.svgrepo.com, Generator: SVG Repo Mixer Tools -->

<svg
   fill="#000000"
   width="800px"
   height="800px"
   viewBox="0 0 64 64"
   enable-background="new 0 0 64 64"
   version="1.1"
   xml:space="preserve"
   id="svg4"
   sodipodi:docname="eletronico_off.svg"
   inkscape:version="1.3 (0e150ed6c4, 2023-07-21)"
   xmlns:inkscape="http://www.inkscape.org/namespaces/inkscape"
   xmlns:sodipodi="http://sodipodi.sourceforge.net/DTD/sodipodi-0.dtd"
   xmlns="http://www.w3.org/2000/svg"
   xmlns:svg="http://www.w3.org/2000/svg"><defs
   id="defs4" /><sodipodi:namedview
   id="namedview4"
   pagecolor="#ffffff"
   bordercolor="#000000"
   borderopacity="0.25"
   inkscape:showpageshadow="2"
   inkscape:pageopacity="0.0"
   inkscape:pagecheckerboard="0"
   inkscape:deskcolor="#d1d1d1"
   inkscape:zoom="1.02625"
   inkscape:cx="400.48721"
   inkscape:cy="400"
   inkscape:window-width="1920"
   inkscape:window-height="1017"
   inkscape:window-x="-8"
   inkscape:window-y="-8"
   inkscape:window-maximized="1"
   inkscape:current-layer="svg4" />&#10;&#10;<g
   id="_x31_-smartphone"
   style="fill:#005f73;fill-opacity:1" />&#10;&#10;<g
   id="_x32_-smartTV"
   style="fill:#005f73;fill-opacity:1" />&#10;&#10;<g
   id="_x33_-telepon"
   style="fill:#005f73;fill-opacity:1" />&#10;&#10;<g
   id="_x34_-computer"
   style="fill:#005f73;fill-opacity:1">&#10;&#10;<g
   id="g4"
   style="fill:#005f73;fill-opacity:1">&#10;&#10;<path
   d="M37,7H7v25h30V7z M35,30H9V9h26V30z"
   id="path1"
   style="fill:#005f73;fill-opacity:1" />&#10;&#10;<path
   d="M28,36h13V3H3v33h13v6H3v19h39V42H28V36z M5,34V5h34v29H28H16H5z M18,36h8v6h-8V36z M40,44v15H5V44h11h12H40z"
   id="path2"
   style="fill:#005f73;fill-opacity:1" />&#10;&#10;<path
   d="M44,15v46h17V15H44z M59,59H46V17h13V59z"
   id="path3"
   style="fill:#005f73;fill-opacity:1" />&#10;&#10;<rect
   height="23"
   width="2"
   x="51"
   y="21"
   id="rect3"
   style="fill:#005f73;fill-opacity:1" />&#10;&#10;<path
   d="M52,56c2.206,0,4-1.794,4-4s-1.794-4-4-4s-4,1.794-4,4S49.794,56,52,56z M52,50c1.103,0,2,0.897,2,2s-0.897,2-2,2    s-2-0.897-2-2S50.897,50,52,50z"
   id="path4"
   style="fill:#005f73;fill-opacity:1" />&#10;&#10;<rect
   height="2"
   width="20"
   x="12"
   y="51"
   id="rect4"
   style="fill:#005f73;fill-opacity:1" />&#10;&#10;</g>&#10;&#10;</g>&#10;&#10;<g
   id="_x35_-kalkulator"
   style="fill:#005f73;fill-opacity:1" />&#10;&#10;<g
   id="_x36_-radio"
   style="fill:#005f73;fill-opacity:1" />&#10;&#10;<g
   id="_x37_-hadset"
   style="fill:#005f73;fill-opacity:1" />&#10;&#10;<g
   id="_x38_-usbflashdisk"
   style="fill:#005f73;fill-opacity:1" />&#10;&#10;<g
   id="_x39_-camera"
   style="fill:#005f73;fill-opacity:1" />&#10;&#10;<g
   id="_x31_0-printer"
   style="fill:#005f73;fill-opacity:1" />&#10;&#10;<g
   id="_x31_1-powerbank"
   style="fill:#005f73;fill-opacity:1" />&#10;&#10;<g
   id="_x31_2-kulkas"
   style="fill:#005f73;fill-opacity:1" />&#10;&#10;<g
   id="_x31_3-modem"
   style="fill:#005f73;fill-opacity:1" />&#10;&#10;<g
   id="_x31_4-tablet"
   style="fill:#005f73;fill-opacity:1" />&#10;&#10;<g
   id="_x31_5-gamebot"
   style="fill:#005f73;fill-opacity:1" />&#10;&#10;<g
   id="_x31_6-wasing_machine"
   style="fill:#005f73;fill-opacity:1" />&#10;&#10;<g
   id="_x31_7-handdryer"
   style="fill:#005f73;fill-opacity:1" />&#10;&#10;<g
   id="_x31_8-blender"
   style="fill:#005f73;fill-opacity:1" />&#10;&#10;<g
   id="_x31_9-controller"
   style="fill:#005f73;fill-opacity:1" />&#10;&#10;<g
   id="_x32_0-michrophone"
   style="fill:#005f73;fill-opacity:1" />&#10;&#10;<g
   id="_x32_1-lamp"
   style="fill:#005f73;fill-opacity:1" />&#10;&#10;</svg>
