<?xml version="1.0" encoding="UTF-8" standalone="no"?>
<!-- Created with Inkscape (http://www.inkscape.org/) -->

<svg
   width="512"
   height="512"
   viewBox="0 0 512 512"
   version="1.1"
   id="svg1"
   xml:space="preserve"
   xmlns="http://www.w3.org/2000/svg"
   xmlns:svg="http://www.w3.org/2000/svg"><defs
     id="defs1"><style
       type="text/css"
       id="style1">&#10;   <![CDATA[
    .fil1 {fill:none}
    .fil0 {fill:#414141}
   ]]>&#10;  </style></defs><g
     id="layer1"><g
       id="g1"
       transform="matrix(4.1681083,-0.02599999,0,4.1681083,52.2135,65.329845)"
       style="fill:#005f73;fill-opacity:1">&#10;&#10;<path
   id="path1"
   d="M 17.901281,55.771692 10.960553,48.607763 C 10.132757,47.756087 8.7713864,47.740369 7.9197114,48.568171 7.0680363,49.395968 7.0521907,50.75709 7.8799867,51.608765 l 4.0354843,4.162642 -9.7585002,2.44e-4 C 0.96303405,55.771637 0,56.734594 0,57.92853 c 0,1.193937 0.96303238,2.157055 2.1569693,2.157055 l 9.9097597,-6.4e-5 -4.2104258,4.545121 c -0.8039175,0.867594 -0.756442,2.228512 0.1111529,3.040389 0.8675927,0.803918 2.2289649,0.756311 3.0408419,-0.111282 l 6.932706,-7.474253 13.586958,3.37e-4 -5.889936,5.897886 c -0.286545,0.286545 -0.477644,0.66871 -0.501522,1.106486 -0.06368,0.94719 0.66051,1.766747 1.6077,1.822464 l 8.182503,0.541487 -9.392193,9.392429 -9.965527,-0.159182 c -1.185977,-0.01592 -2.165115,0.931031 -2.181034,2.117009 -0.01592,1.185976 0.931267,2.164952 2.117245,2.180871 l 5.802466,0.09578 -6.900622,6.900737 c -0.843715,0.843717 -0.843715,2.204768 0,3.048485 0.843716,0.843701 2.204767,0.844012 3.048481,2.95e-4 l 7.012156,-7.012722 0.23109,6.192748 c 0.0398,1.18598 1.03478,2.109396 2.220758,2.069598 1.185976,-0.0398 2.109297,-1.034851 2.069499,-2.22083 l -0.38235,-10.188308 9.535814,-9.519493 v 7.839879 l 0.008,4.9e-5 c 0,0.39798 0.135147,0.803856 0.421692,1.130198 0.628807,0.708403 1.711423,0.788334 2.427784,0.159528 l 5.778402,-5.062455 v 13.149225 l -7.163415,6.940735 c -0.851675,0.827798 -0.867519,2.188912 -0.03973,3.040589 0.827796,0.851679 2.188784,0.867789 3.040459,0.03996 l 4.16268,-4.035491 v 9.75812 c 0,1.19394 0.963415,2.15706 2.157351,2.15706 1.193938,0 2.156969,-0.96294 2.156969,-2.15688 v -9.909763 l 4.545029,4.210507 c 0.867595,0.803916 2.228583,0.756316 3.04046,-0.111283 0.803917,-0.867596 0.75606,-2.228512 -0.111535,-3.040391 L 51.092682,89.52805 V 75.423924 l 5.945703,5.94574 c 0.286546,0.286544 0.668782,0.477671 1.10656,0.50155 0.947189,0.06368 1.76703,-0.660599 1.822747,-1.60779 l 0.509163,-7.784754 9.870035,9.870105 -0.381968,10.188121 c -0.04776,1.185979 0.883522,2.180881 2.069499,2.220679 1.185978,0.04776 2.18096,-0.883412 2.220758,-2.069391 l 0.230708,-6.192545 6.065261,6.065279 c 0.843717,0.843717 2.20476,0.843629 3.048477,-8.8e-5 0.843717,-0.843701 0.843717,-2.20476 0,-3.048477 l -5.961744,-5.961883 5.802465,-0.09558 c 1.185979,-0.01592 2.133163,-0.994835 2.117244,-2.180813 -0.01592,-1.185977 -0.995053,-2.133018 -2.181032,-2.117099 l -9.965145,0.158998 -10.442985,-10.450831 8.269973,2.1e-5 v -0.008 c 0.39798,0 0.803898,-0.135354 1.130242,-0.421899 0.708402,-0.628807 0.788086,-1.711192 0.15928,-2.427554 l -5.197811,-5.929998 13.873818,-1.65e-4 6.932704,7.474419 c 0.811879,0.875554 2.172866,0.923279 3.040462,0.111402 0.87554,-0.811877 0.923409,-2.172935 0.11153,-3.040528 l -4.210809,-4.54494 8.548812,-1.48e-4 c 1.19394,0 2.156971,-0.962947 2.156971,-2.156884 0,-1.193936 -0.963031,-2.157055 -2.156971,-2.157055 l -8.421236,-2.01e-4 4.035491,-4.162717 c 0.827798,-0.851674 0.811943,-2.212911 -0.03972,-3.040707 -0.851677,-0.827796 -2.213046,-0.81182 -3.040844,0.03985 l -6.940727,7.163664 z m 44.860146,4.313785 4.672225,5.333143 -7.91971,-1.28e-4 -5.333028,-5.33268 z m -18.458187,-0.0078 -6.137069,6.136983 -7.410165,-0.485485 5.643185,-5.643507 v -0.008 z m 6.781448,3.008659 6.152728,6.152912 -0.461798,7.012331 -5.69093,-5.690907 z m -4.313939,0.620908 v 8.126736 l -5.181769,4.545172 v -7.489996 z"
   style="fill:#005f73;fill-opacity:1;stroke-width:0.79596" />&#10;&#10;</g><g
       style="clip-rule:evenodd;fill-rule:evenodd;image-rendering:optimizeQuality;shape-rendering:geometricPrecision;text-rendering:geometricPrecision"
       id="g2"
       transform="matrix(0.10001019,0,0,0.10001019,87.631193,0.77017572)"><g
         id="Layer_x0020_1">&#10;  <metadata
   id="CorelCorpID_0Corel-Layer" />&#10;  <g
   id="_428519976"
   transform="matrix(1.9719254,0,0,1.9719254,-335.38608,-508.81401)"
   style="fill:#ae2012;fill-opacity:1;stroke:#ae2012;stroke-opacity:1">&#10;   <path
   class="fil0"
   d="m 1002,1071 z m 339,-100 c -105,5 -141,-30 -144,-94 -2,-37 11,-80 25,-131 33,-114 78,-269 -43,-402 -35,-39 -92,-66 -152,-89 20,50 36,111 42,174 5,53 4,107 -7,156 -12,52 -35,98 -73,133 -34,30 -78,51 -135,57 -16,2 -32,1 -47,-3 -44,-9 -86,-36 -117,-71 -22,-24 -39,-53 -49,-83 -175,172 -126,339 -86,472 20,67 38,127 29,181 -2,13 -6,26 -11,37 -10,23 -26,43 -46,57 -22,15 -47,22 -76,17 -10,-2 -19,-4 -29,-9 -6,-3 -12,-5 -17,-8 44,169 128,282 243,349 21,12 43,23 66,32 6,-17 -3,-47 -13,-83 -30,-103 -69,-240 100,-375 15,-12 38,-10 50,6 7,9 9,19 7,29 v 0 c 0,2 -1,5 0,8 1,13 9,27 20,39 11,12 25,22 39,25 4,1 8,1 11,1 21,-2 37,-9 48,-19 13,-12 22,-30 26,-50 5,-23 6,-49 3,-75 -5,-55 -24,-106 -41,-124 -13,-15 -12,-37 3,-50 10,-9 24,-11 36,-7 289,104 239,270 205,382 -8,25 -14,47 -13,59 0,2 7,3 27,2 12,-1 23,-11 31,-24 17,-27 25,-66 28,-92 2,-19 19,-34 39,-32 13,1 24,9 29,20 v 0 c 30,64 38,117 36,163 -3,47 -17,86 -33,122 -6,12 -14,37 -19,64 0,2 -1,4 -1,6 96,-31 180,-87 237,-163 38,-49 65,-107 78,-173 -21,21 -45,36 -70,40 -25,4 -46,4 -64,-1 -43,-10 -68,-37 -81,-74 -11,-31 -12,-69 -8,-106 7,-65 30,-132 44,-163 23,-52 43,-107 47,-171 2,-35 -1,-73 -11,-116 -9,25 -20,50 -33,71 -29,47 -71,82 -128,85 z"
   id="path1-0"
   style="fill:#ae2012;fill-opacity:1;stroke:#ae2012;stroke-opacity:1" />&#10;   &#10;  </g>&#10; </g><rect
         class="fil1"
         width="2048"
         height="2048"
         id="rect2"
         x="0"
         y="0" /></g></g></svg>
