<?xml version="1.0" encoding="UTF-8" standalone="no"?>
<!-- Uploaded to: SVG Repo, www.svgrepo.com, Generator: SVG Repo Mixer Tools -->

<svg
   width="800px"
   height="800px"
   viewBox="0 0 20 20"
   version="1.1"
   id="svg1"
   sodipodi:docname="porta_on.svg"
   inkscape:version="1.3 (0e150ed6c4, 2023-07-21)"
   xmlns:inkscape="http://www.inkscape.org/namespaces/inkscape"
   xmlns:sodipodi="http://sodipodi.sourceforge.net/DTD/sodipodi-0.dtd"
   xmlns="http://www.w3.org/2000/svg"
   xmlns:svg="http://www.w3.org/2000/svg">
  <sodipodi:namedview
     id="namedview1"
     pagecolor="#ffffff"
     bordercolor="#000000"
     borderopacity="0.25"
     inkscape:showpageshadow="2"
     inkscape:pageopacity="0.0"
     inkscape:pagecheckerboard="0"
     inkscape:deskcolor="#d1d1d1"
     inkscape:zoom="1.02625"
     inkscape:cx="400.48721"
     inkscape:cy="400"
     inkscape:window-width="1920"
     inkscape:window-height="1017"
     inkscape:window-x="-8"
     inkscape:window-y="-8"
     inkscape:window-maximized="1"
     inkscape:current-layer="svg1" />
  <title
     id="title1">door [#45]</title>
  <desc
     id="desc1">Created with Sketch.</desc>
  <defs
     id="defs1" />
  <g
     id="Page-1"
     stroke="none"
     stroke-width="1"
     fill="none"
     fill-rule="evenodd"
     style="fill:#94d2bd;fill-opacity:1">
    <g
       id="Dribbble-Light-Preview"
       transform="translate(-180.000000, -7999.000000)"
       fill="#000000"
       style="fill:#94d2bd;fill-opacity:1">
      <g
         id="icons"
         transform="translate(56.000000, 160.000000)"
         style="fill:#94d2bd;fill-opacity:1">
        <path
           d="M131.25,7849.125 C131.25,7848.573 131.698,7848.125 132.25,7848.125 C132.802,7848.125 133.25,7848.573 133.25,7849.125 C133.25,7849.677 132.802,7850.125 132.25,7850.125 C131.698,7850.125 131.25,7849.677 131.25,7849.125 L131.25,7849.125 Z M130,7857 L138,7857 L138,7841 L130,7841 L130,7857 Z M140,7857 L140,7839 L128,7839 L128,7857 L124,7857 L124,7859 L144,7859 L144,7857 L140,7857 Z"
           id="door-[#45]"
           style="fill:#94d2bd;fill-opacity:1" />
      </g>
    </g>
  </g>
</svg>
