<?xml version="1.0" encoding="UTF-8" standalone="no"?>
<svg
   id="shapes"
   viewBox="0 0 512 512"
   version="1.1"
   sodipodi:docname="results_on.svg"
   inkscape:version="1.3 (0e150ed6c4, 2023-07-21)"
   xmlns:inkscape="http://www.inkscape.org/namespaces/inkscape"
   xmlns:sodipodi="http://sodipodi.sourceforge.net/DTD/sodipodi-0.dtd"
   xmlns="http://www.w3.org/2000/svg"
   xmlns:svg="http://www.w3.org/2000/svg">
  <sodipodi:namedview
     id="namedview18"
     pagecolor="#ffffff"
     bordercolor="#000000"
     borderopacity="0.25"
     inkscape:showpageshadow="2"
     inkscape:pageopacity="0.0"
     inkscape:pagecheckerboard="0"
     inkscape:deskcolor="#d1d1d1"
     inkscape:zoom="1.6035156"
     inkscape:cx="255.68819"
     inkscape:cy="254.12911"
     inkscape:window-width="1920"
     inkscape:window-height="1017"
     inkscape:window-x="-8"
     inkscape:window-y="-8"
     inkscape:window-maximized="1"
     inkscape:current-layer="shapes" />
  <defs
     id="defs1">
    <style
       id="style1">.cls-1{fill:#f99f3d;}.cls-2{fill:#ffeb73;}.cls-3{fill:#9ac5e8;}</style>
  </defs>
  <path
     class="cls-1"
     d="m 418.91245,223.29033 a 147.60105,147.60105 0 0 1 -44.5035,89.28424 c -18.90093,6.49052 -37.76047,-14.51815 -38.11654,-34.49915 -0.35605,-19.98103 10.84481,-38.02273 19.76233,-55.90703 8.91734,-17.88426 15.77807,-39.45369 6.89733,-57.35614 -4.6453,-9.36438 -12.95984,-16.25738 -20.53217,-23.46359 C 300.2976,101.26377 291.18907,54.633336 276.22128,2.0761572 a 514.29872,514.29872 0 0 1 -9.15025,60.0540178 c -3.1284,14.653506 -6.71624,28.320013 -10.51806,40.940825 -0.16051,27.94557 -0.48184,407.06106 -0.48184,407.06106 a 49.344599,49.344599 0 0 1 25.53312,-8.19736 c 0.72049,-0.0269 1.19295,-0.0409 1.47851,-0.0305 a 123.20971,123.20971 0 0 0 49.12188,-7.96246 141.02582,141.02582 0 0 0 49.96417,-28.03016 c 29.9077,-26.17266 39.95485,-57.85157 46.52986,-79.55104 21.61992,-71.3533 1.16556,-135.33691 -9.78622,-163.07042 z"
     id="path14"
     style="stroke-width:2.69849;fill:#9b2226;fill-opacity:1" />
  <path
     class="cls-3"
     d="m 251.95589,105.12877 a 7.1752867,7.1752867 0 0 0 -6.46631,7.22116 v 28.39022 l -18.37084,-18.47568 a 7.3198195,7.3198195 0 0 0 -10.35178,10.35179 l 28.72273,28.58657 v 30.60815 L 204.2282,150.54976 a 7.2167355,7.2167355 0 0 0 -10.20598,10.20598 l 51.46736,51.46743 V 291.181 l -53.94607,-53.91483 v -65.72122 a 7.2191641,7.2191641 0 0 0 -7.28999,-7.29002 7.3111826,7.3111826 0 0 0 -7.29003,7.29002 v 51.14954 l -18.22487,-18.21442 v -36.43433 a 7.217545,7.217545 0 1 0 -14.43437,0 v 22.00841 L 131.6197,177.37691 a 7.2167355,7.2167355 0 0 0 -10.20599,10.206 l 12.53158,12.53888 h -21.86288 a 7.4077886,7.4077886 0 0 0 -7.28999,7.29 7.3111826,7.3111826 0 0 0 7.28999,7.29003 h 36.43445 l 18.21458,18.22501 h -51.1499 a 7.2900264,7.2900264 0 1 0 0,14.57993 h 65.72139 l 51.43753,51.4675 h -72.68974 l -46.51023,-46.51039 a 7.3198768,7.3198768 0 1 0 -10.35181,10.35192 l 36.15845,36.15847 H 113.68628 L 87.879616,273.16762 A 7.3198195,7.3198195 0 0 0 77.527831,283.5194 l 15.454715,15.45486 H 69.071381 a 7.219191,7.219191 0 0 0 -7.29003,7.29001 7.3111826,7.3111826 0 0 0 7.29003,7.29001 H 92.982546 L 77.527831,329.009 a 7.3058937,7.3058937 0 0 0 0,10.20611 7.2178418,7.2178418 0 0 0 10.351785,0 l 25.660714,-25.66083 h 25.8068 l -36.1585,36.15857 a 7.3054618,7.3054618 0 0 0 0,10.20597 7.2184626,7.2184626 0 0 0 10.35181,0 l 46.36427,-46.36443 h 72.75452 l -51.3217,51.3217 h -65.7559 a 7.3111826,7.3111826 0 0 0 -7.29003,7.29 7.2192721,7.2192721 0 0 0 7.29003,7.29003 h 51.17586 l -18.22503,18.225 h -36.45005 a 7.2900264,7.2900264 0 0 0 0,14.57996 h 21.87006 l -16.9128,16.91279 a 7.2184626,7.2184626 0 0 0 0,10.35178 7.3057316,7.3057316 0 0 0 10.206,0 l 17.05858,-17.05859 v 21.87006 a 7.217545,7.217545 0 1 0 14.43437,0 v -36.30443 l 18.22487,-18.22486 v 51.17588 a 7.281985,7.281985 0 0 0 7.29003,7.14422 7.1882933,7.1882933 0 0 0 7.28999,-7.14422 v -65.75583 l 53.94607,-53.94607 v 90.54192 l -51.46736,51.46736 a 7.2184626,7.2184626 0 0 0 0,10.35196 7.3057316,7.3057316 0 0 0 10.20598,0 l 41.26138,-41.26139 v 30.47218 l -28.72273,28.72273 a 7.3198195,7.3198195 0 0 0 10.35178,10.35179 l 18.37084,-18.47569 v 21.53747 a 7.2826056,7.2826056 0 0 0 6.46631,7.21845 z"
     id="path15"
     style="stroke-width:2.69849;fill:#005f73;fill-opacity:1" />
  <path
     class="cls-2"
     d="M 256.0711,480.21044 V 257.94961 c 0,0 44.58627,-30.50645 44.58627,-68.05274 0,0 30.50643,63.35945 0,175.99841 0,0 35.19968,25.81312 65.70606,4.6933 0,0 7.03996,80.79166 -110.29233,109.62186 z"
     id="path16"
     style="stroke-width:2.69849;fill:#ca6702;fill-opacity:0.30980393" />
</svg>
